<mxfile host="65bd71144e">
    <diagram id="pQfpyWMjRYboCvdi65mx" name="Page-1">
        <mxGraphModel dx="2476" dy="864" grid="1" gridSize="10" guides="1" tooltips="1" connect="1" arrows="1" fold="1" page="1" pageScale="1" pageWidth="827" pageHeight="1169" math="0" shadow="0">
            <root>
                <mxCell id="0"/>
                <mxCell id="1" parent="0"/>
                <mxCell id="DfEszqJMXf5OwfAuTa_I-1" value="&lt;font style=&quot;font-size: 36px;&quot;&gt;IF&lt;/font&gt;" style="rounded=0;whiteSpace=wrap;html=1;" parent="1" vertex="1">
                    <mxGeometry x="100" y="220" width="120" height="60" as="geometry"/>
                </mxCell>
                <mxCell id="DfEszqJMXf5OwfAuTa_I-2" value="&lt;font style=&quot;font-size: 36px;&quot;&gt;ID&lt;/font&gt;" style="rounded=0;whiteSpace=wrap;html=1;" parent="1" vertex="1">
                    <mxGeometry x="220" y="220" width="120" height="60" as="geometry"/>
                </mxCell>
                <mxCell id="DfEszqJMXf5OwfAuTa_I-3" value="&lt;font style=&quot;font-size: 36px;&quot;&gt;EX&lt;/font&gt;" style="rounded=0;whiteSpace=wrap;html=1;" parent="1" vertex="1">
                    <mxGeometry x="340" y="220" width="120" height="60" as="geometry"/>
                </mxCell>
                <mxCell id="DfEszqJMXf5OwfAuTa_I-4" value="&lt;font style=&quot;font-size: 36px;&quot;&gt;MEM&lt;/font&gt;" style="rounded=0;whiteSpace=wrap;html=1;" parent="1" vertex="1">
                    <mxGeometry x="460" y="220" width="120" height="60" as="geometry"/>
                </mxCell>
                <mxCell id="DfEszqJMXf5OwfAuTa_I-5" value="&lt;font style=&quot;font-size: 36px;&quot;&gt;WB&lt;/font&gt;" style="rounded=0;whiteSpace=wrap;html=1;" parent="1" vertex="1">
                    <mxGeometry x="580" y="220" width="120" height="60" as="geometry"/>
                </mxCell>
                <mxCell id="DfEszqJMXf5OwfAuTa_I-6" value="" style="rounded=0;whiteSpace=wrap;html=1;" parent="1" vertex="1">
                    <mxGeometry x="700" y="220" width="120" height="60" as="geometry"/>
                </mxCell>
                <mxCell id="DfEszqJMXf5OwfAuTa_I-7" value="" style="rounded=0;whiteSpace=wrap;html=1;" parent="1" vertex="1">
                    <mxGeometry x="820" y="220" width="120" height="60" as="geometry"/>
                </mxCell>
                <mxCell id="DfEszqJMXf5OwfAuTa_I-8" value="" style="rounded=0;whiteSpace=wrap;html=1;" parent="1" vertex="1">
                    <mxGeometry x="940" y="220" width="120" height="60" as="geometry"/>
                </mxCell>
                <mxCell id="DfEszqJMXf5OwfAuTa_I-9" value="" style="rounded=0;whiteSpace=wrap;html=1;" parent="1" vertex="1">
                    <mxGeometry x="1060" y="220" width="120" height="60" as="geometry"/>
                </mxCell>
                <mxCell id="DfEszqJMXf5OwfAuTa_I-10" value="" style="rounded=0;whiteSpace=wrap;html=1;" parent="1" vertex="1">
                    <mxGeometry x="1180" y="220" width="120" height="60" as="geometry"/>
                </mxCell>
                <mxCell id="DfEszqJMXf5OwfAuTa_I-11" value="" style="rounded=0;whiteSpace=wrap;html=1;" parent="1" vertex="1">
                    <mxGeometry x="1300" y="220" width="120" height="60" as="geometry"/>
                </mxCell>
                <mxCell id="DfEszqJMXf5OwfAuTa_I-12" value="" style="rounded=0;whiteSpace=wrap;html=1;" parent="1" vertex="1">
                    <mxGeometry x="1420" y="220" width="120" height="60" as="geometry"/>
                </mxCell>
                <mxCell id="DfEszqJMXf5OwfAuTa_I-13" value="&lt;font style=&quot;font-size: 36px;&quot;&gt;-&lt;/font&gt;" style="rounded=0;whiteSpace=wrap;html=1;" parent="1" vertex="1">
                    <mxGeometry x="100" y="280" width="120" height="60" as="geometry"/>
                </mxCell>
                <mxCell id="DfEszqJMXf5OwfAuTa_I-14" value="&lt;span style=&quot;font-size: 36px;&quot;&gt;IF&lt;/span&gt;" style="rounded=0;whiteSpace=wrap;html=1;" parent="1" vertex="1">
                    <mxGeometry x="220" y="280" width="120" height="60" as="geometry"/>
                </mxCell>
                <mxCell id="DfEszqJMXf5OwfAuTa_I-15" value="&lt;span style=&quot;font-size: 36px;&quot;&gt;ID&lt;/span&gt;" style="rounded=0;whiteSpace=wrap;html=1;" parent="1" vertex="1">
                    <mxGeometry x="340" y="280" width="120" height="60" as="geometry"/>
                </mxCell>
                <mxCell id="DfEszqJMXf5OwfAuTa_I-16" value="&lt;font style=&quot;font-size: 36px;&quot;&gt;STALL&lt;/font&gt;" style="rounded=0;whiteSpace=wrap;html=1;" parent="1" vertex="1">
                    <mxGeometry x="460" y="280" width="120" height="60" as="geometry"/>
                </mxCell>
                <mxCell id="DfEszqJMXf5OwfAuTa_I-17" value="&lt;span style=&quot;font-size: 36px;&quot;&gt;STALL&lt;/span&gt;" style="rounded=0;whiteSpace=wrap;html=1;" parent="1" vertex="1">
                    <mxGeometry x="580" y="280" width="120" height="60" as="geometry"/>
                </mxCell>
                <mxCell id="DfEszqJMXf5OwfAuTa_I-18" value="&lt;span style=&quot;font-size: 36px;&quot;&gt;EX&lt;/span&gt;" style="rounded=0;whiteSpace=wrap;html=1;" parent="1" vertex="1">
                    <mxGeometry x="700" y="280" width="120" height="60" as="geometry"/>
                </mxCell>
                <mxCell id="DfEszqJMXf5OwfAuTa_I-19" value="&lt;span style=&quot;font-size: 36px;&quot;&gt;MEM&lt;/span&gt;" style="rounded=0;whiteSpace=wrap;html=1;" parent="1" vertex="1">
                    <mxGeometry x="820" y="280" width="120" height="60" as="geometry"/>
                </mxCell>
                <mxCell id="DfEszqJMXf5OwfAuTa_I-20" value="&lt;span style=&quot;font-size: 36px;&quot;&gt;WB&lt;/span&gt;" style="rounded=0;whiteSpace=wrap;html=1;" parent="1" vertex="1">
                    <mxGeometry x="940" y="280" width="120" height="60" as="geometry"/>
                </mxCell>
                <mxCell id="DfEszqJMXf5OwfAuTa_I-21" value="" style="rounded=0;whiteSpace=wrap;html=1;" parent="1" vertex="1">
                    <mxGeometry x="1060" y="280" width="120" height="60" as="geometry"/>
                </mxCell>
                <mxCell id="DfEszqJMXf5OwfAuTa_I-22" value="" style="rounded=0;whiteSpace=wrap;html=1;" parent="1" vertex="1">
                    <mxGeometry x="1180" y="280" width="120" height="60" as="geometry"/>
                </mxCell>
                <mxCell id="DfEszqJMXf5OwfAuTa_I-23" value="" style="rounded=0;whiteSpace=wrap;html=1;" parent="1" vertex="1">
                    <mxGeometry x="1300" y="280" width="120" height="60" as="geometry"/>
                </mxCell>
                <mxCell id="DfEszqJMXf5OwfAuTa_I-24" value="" style="rounded=0;whiteSpace=wrap;html=1;" parent="1" vertex="1">
                    <mxGeometry x="1420" y="280" width="120" height="60" as="geometry"/>
                </mxCell>
                <mxCell id="DfEszqJMXf5OwfAuTa_I-25" value="&lt;span style=&quot;font-size: 36px;&quot;&gt;IF&lt;/span&gt;" style="rounded=0;whiteSpace=wrap;html=1;" parent="1" vertex="1">
                    <mxGeometry x="340" y="340" width="120" height="60" as="geometry"/>
                </mxCell>
                <mxCell id="DfEszqJMXf5OwfAuTa_I-26" value="&lt;span style=&quot;font-size: 36px;&quot;&gt;ID&lt;/span&gt;" style="rounded=0;whiteSpace=wrap;html=1;" parent="1" vertex="1">
                    <mxGeometry x="460" y="340" width="120" height="60" as="geometry"/>
                </mxCell>
                <mxCell id="DfEszqJMXf5OwfAuTa_I-27" value="&lt;span style=&quot;font-size: 36px&quot;&gt;STALL&lt;/span&gt;" style="rounded=0;whiteSpace=wrap;html=1;" parent="1" vertex="1">
                    <mxGeometry x="580" y="340" width="120" height="60" as="geometry"/>
                </mxCell>
                <mxCell id="DfEszqJMXf5OwfAuTa_I-28" value="&lt;span style=&quot;font-size: 36px&quot;&gt;STALL&lt;/span&gt;" style="rounded=0;whiteSpace=wrap;html=1;" parent="1" vertex="1">
                    <mxGeometry x="700" y="340" width="120" height="60" as="geometry"/>
                </mxCell>
                <mxCell id="DfEszqJMXf5OwfAuTa_I-29" value="&lt;span style=&quot;font-size: 36px&quot;&gt;EX&lt;/span&gt;" style="rounded=0;whiteSpace=wrap;html=1;" parent="1" vertex="1">
                    <mxGeometry x="820" y="340" width="120" height="60" as="geometry"/>
                </mxCell>
                <mxCell id="DfEszqJMXf5OwfAuTa_I-30" value="&lt;span style=&quot;font-size: 36px&quot;&gt;MEM&lt;/span&gt;" style="rounded=0;whiteSpace=wrap;html=1;" parent="1" vertex="1">
                    <mxGeometry x="940" y="340" width="120" height="60" as="geometry"/>
                </mxCell>
                <mxCell id="DfEszqJMXf5OwfAuTa_I-31" value="&lt;span style=&quot;font-size: 36px&quot;&gt;WB&lt;/span&gt;" style="rounded=0;whiteSpace=wrap;html=1;" parent="1" vertex="1">
                    <mxGeometry x="1060" y="340" width="120" height="60" as="geometry"/>
                </mxCell>
                <mxCell id="DfEszqJMXf5OwfAuTa_I-32" value="" style="rounded=0;whiteSpace=wrap;html=1;" parent="1" vertex="1">
                    <mxGeometry x="1180" y="340" width="120" height="60" as="geometry"/>
                </mxCell>
                <mxCell id="DfEszqJMXf5OwfAuTa_I-33" value="" style="rounded=0;whiteSpace=wrap;html=1;" parent="1" vertex="1">
                    <mxGeometry x="1300" y="340" width="120" height="60" as="geometry"/>
                </mxCell>
                <mxCell id="DfEszqJMXf5OwfAuTa_I-34" value="" style="rounded=0;whiteSpace=wrap;html=1;" parent="1" vertex="1">
                    <mxGeometry x="1420" y="340" width="120" height="60" as="geometry"/>
                </mxCell>
                <mxCell id="DfEszqJMXf5OwfAuTa_I-35" value="&lt;span style=&quot;font-size: 36px;&quot;&gt;IF&lt;/span&gt;" style="rounded=0;whiteSpace=wrap;html=1;" parent="1" vertex="1">
                    <mxGeometry x="460" y="400" width="120" height="60" as="geometry"/>
                </mxCell>
                <mxCell id="DfEszqJMXf5OwfAuTa_I-36" value="&lt;span style=&quot;font-size: 36px;&quot;&gt;ID&lt;/span&gt;" style="rounded=0;whiteSpace=wrap;html=1;" parent="1" vertex="1">
                    <mxGeometry x="580" y="400" width="120" height="60" as="geometry"/>
                </mxCell>
                <mxCell id="DfEszqJMXf5OwfAuTa_I-37" value="&lt;span style=&quot;font-size: 36px;&quot;&gt;STALL&lt;/span&gt;" style="rounded=0;whiteSpace=wrap;html=1;" parent="1" vertex="1">
                    <mxGeometry x="700" y="400" width="120" height="60" as="geometry"/>
                </mxCell>
                <mxCell id="DfEszqJMXf5OwfAuTa_I-38" value="&lt;span style=&quot;font-size: 36px;&quot;&gt;STALL&lt;/span&gt;" style="rounded=0;whiteSpace=wrap;html=1;" parent="1" vertex="1">
                    <mxGeometry x="820" y="400" width="120" height="60" as="geometry"/>
                </mxCell>
                <mxCell id="DfEszqJMXf5OwfAuTa_I-39" value="&lt;span style=&quot;font-size: 36px;&quot;&gt;STALL&lt;/span&gt;" style="rounded=0;whiteSpace=wrap;html=1;" parent="1" vertex="1">
                    <mxGeometry x="940" y="400" width="120" height="60" as="geometry"/>
                </mxCell>
                <mxCell id="DfEszqJMXf5OwfAuTa_I-40" value="&lt;span style=&quot;font-size: 36px;&quot;&gt;EX&lt;/span&gt;" style="rounded=0;whiteSpace=wrap;html=1;" parent="1" vertex="1">
                    <mxGeometry x="1060" y="400" width="120" height="60" as="geometry"/>
                </mxCell>
                <mxCell id="DfEszqJMXf5OwfAuTa_I-41" value="&lt;span style=&quot;font-size: 36px;&quot;&gt;MEM&lt;/span&gt;" style="rounded=0;whiteSpace=wrap;html=1;" parent="1" vertex="1">
                    <mxGeometry x="1180" y="400" width="120" height="60" as="geometry"/>
                </mxCell>
                <mxCell id="DfEszqJMXf5OwfAuTa_I-42" value="&lt;span style=&quot;font-size: 36px;&quot;&gt;WB&lt;/span&gt;" style="rounded=0;whiteSpace=wrap;html=1;" parent="1" vertex="1">
                    <mxGeometry x="1300" y="400" width="120" height="60" as="geometry"/>
                </mxCell>
                <mxCell id="DfEszqJMXf5OwfAuTa_I-43" value="" style="rounded=0;whiteSpace=wrap;html=1;" parent="1" vertex="1">
                    <mxGeometry x="1420" y="400" width="120" height="60" as="geometry"/>
                </mxCell>
                <mxCell id="DfEszqJMXf5OwfAuTa_I-44" value="&lt;span style=&quot;font-size: 36px;&quot;&gt;IF&lt;/span&gt;" style="rounded=0;whiteSpace=wrap;html=1;" parent="1" vertex="1">
                    <mxGeometry x="580" y="460" width="120" height="60" as="geometry"/>
                </mxCell>
                <mxCell id="DfEszqJMXf5OwfAuTa_I-45" value="&lt;span style=&quot;font-size: 36px;&quot;&gt;ID&lt;/span&gt;" style="rounded=0;whiteSpace=wrap;html=1;" parent="1" vertex="1">
                    <mxGeometry x="700" y="460" width="120" height="60" as="geometry"/>
                </mxCell>
                <mxCell id="DfEszqJMXf5OwfAuTa_I-46" value="&lt;span style=&quot;font-size: 36px;&quot;&gt;STALL&lt;/span&gt;" style="rounded=0;whiteSpace=wrap;html=1;" parent="1" vertex="1">
                    <mxGeometry x="820" y="460" width="120" height="60" as="geometry"/>
                </mxCell>
                <mxCell id="DfEszqJMXf5OwfAuTa_I-47" value="&lt;span style=&quot;font-size: 36px;&quot;&gt;STALL&lt;/span&gt;" style="rounded=0;whiteSpace=wrap;html=1;" parent="1" vertex="1">
                    <mxGeometry x="940" y="460" width="120" height="60" as="geometry"/>
                </mxCell>
                <mxCell id="DfEszqJMXf5OwfAuTa_I-48" value="&lt;span style=&quot;font-size: 36px;&quot;&gt;STALL&lt;/span&gt;" style="rounded=0;whiteSpace=wrap;html=1;" parent="1" vertex="1">
                    <mxGeometry x="1060" y="460" width="120" height="60" as="geometry"/>
                </mxCell>
                <mxCell id="DfEszqJMXf5OwfAuTa_I-49" value="&lt;span style=&quot;font-size: 36px;&quot;&gt;STALL&lt;/span&gt;" style="rounded=0;whiteSpace=wrap;html=1;" parent="1" vertex="1">
                    <mxGeometry x="1180" y="460" width="120" height="60" as="geometry"/>
                </mxCell>
                <mxCell id="DfEszqJMXf5OwfAuTa_I-50" value="&lt;span style=&quot;font-size: 36px;&quot;&gt;STALL&lt;/span&gt;" style="rounded=0;whiteSpace=wrap;html=1;" parent="1" vertex="1">
                    <mxGeometry x="1300" y="460" width="120" height="60" as="geometry"/>
                </mxCell>
                <mxCell id="DfEszqJMXf5OwfAuTa_I-51" value="&lt;span style=&quot;font-size: 36px;&quot;&gt;EX&lt;/span&gt;" style="rounded=0;whiteSpace=wrap;html=1;" parent="1" vertex="1">
                    <mxGeometry x="1420" y="460" width="120" height="60" as="geometry"/>
                </mxCell>
                <mxCell id="DfEszqJMXf5OwfAuTa_I-52" value="&lt;span style=&quot;font-size: 36px;&quot;&gt;IF&lt;/span&gt;" style="rounded=0;whiteSpace=wrap;html=1;" parent="1" vertex="1">
                    <mxGeometry x="700" y="520" width="120" height="60" as="geometry"/>
                </mxCell>
                <mxCell id="DfEszqJMXf5OwfAuTa_I-53" value="&lt;span style=&quot;font-size: 36px;&quot;&gt;ID&lt;/span&gt;" style="rounded=0;whiteSpace=wrap;html=1;" parent="1" vertex="1">
                    <mxGeometry x="820" y="520" width="120" height="60" as="geometry"/>
                </mxCell>
                <mxCell id="DfEszqJMXf5OwfAuTa_I-54" value="&lt;span style=&quot;font-size: 36px;&quot;&gt;STALL&lt;/span&gt;" style="rounded=0;whiteSpace=wrap;html=1;" parent="1" vertex="1">
                    <mxGeometry x="940" y="520" width="120" height="60" as="geometry"/>
                </mxCell>
                <mxCell id="DfEszqJMXf5OwfAuTa_I-55" value="&lt;span style=&quot;font-size: 36px;&quot;&gt;STALL&lt;/span&gt;" style="rounded=0;whiteSpace=wrap;html=1;" parent="1" vertex="1">
                    <mxGeometry x="1060" y="520" width="120" height="60" as="geometry"/>
                </mxCell>
                <mxCell id="DfEszqJMXf5OwfAuTa_I-56" value="&lt;span style=&quot;font-size: 36px;&quot;&gt;STALL&lt;/span&gt;" style="rounded=0;whiteSpace=wrap;html=1;" parent="1" vertex="1">
                    <mxGeometry x="1180" y="520" width="120" height="60" as="geometry"/>
                </mxCell>
                <mxCell id="DfEszqJMXf5OwfAuTa_I-57" value="&lt;span style=&quot;font-size: 36px;&quot;&gt;STALL&lt;/span&gt;" style="rounded=0;whiteSpace=wrap;html=1;" parent="1" vertex="1">
                    <mxGeometry x="1300" y="520" width="120" height="60" as="geometry"/>
                </mxCell>
                <mxCell id="DfEszqJMXf5OwfAuTa_I-58" value="&lt;span style=&quot;font-size: 36px;&quot;&gt;STALL&lt;/span&gt;" style="rounded=0;whiteSpace=wrap;html=1;" parent="1" vertex="1">
                    <mxGeometry x="1420" y="520" width="120" height="60" as="geometry"/>
                </mxCell>
                <mxCell id="DfEszqJMXf5OwfAuTa_I-59" value="&lt;font style=&quot;font-size: 36px;&quot;&gt;-&lt;/font&gt;" style="rounded=0;whiteSpace=wrap;html=1;" parent="1" vertex="1">
                    <mxGeometry x="220" y="340" width="120" height="60" as="geometry"/>
                </mxCell>
                <mxCell id="DfEszqJMXf5OwfAuTa_I-60" value="&lt;font style=&quot;font-size: 36px;&quot;&gt;-&lt;/font&gt;" style="rounded=0;whiteSpace=wrap;html=1;" parent="1" vertex="1">
                    <mxGeometry x="340" y="400" width="120" height="60" as="geometry"/>
                </mxCell>
                <mxCell id="DfEszqJMXf5OwfAuTa_I-61" value="&lt;font style=&quot;font-size: 36px;&quot;&gt;-&lt;/font&gt;" style="rounded=0;whiteSpace=wrap;html=1;" parent="1" vertex="1">
                    <mxGeometry x="460" y="460" width="120" height="60" as="geometry"/>
                </mxCell>
                <mxCell id="DfEszqJMXf5OwfAuTa_I-62" value="&lt;font style=&quot;font-size: 36px;&quot;&gt;-&lt;/font&gt;" style="rounded=0;whiteSpace=wrap;html=1;" parent="1" vertex="1">
                    <mxGeometry x="580" y="520" width="120" height="60" as="geometry"/>
                </mxCell>
                <mxCell id="DfEszqJMXf5OwfAuTa_I-63" value="&lt;font style=&quot;font-size: 36px;&quot;&gt;-&lt;/font&gt;" style="rounded=0;whiteSpace=wrap;html=1;" parent="1" vertex="1">
                    <mxGeometry x="100" y="340" width="120" height="60" as="geometry"/>
                </mxCell>
                <mxCell id="DfEszqJMXf5OwfAuTa_I-64" value="&lt;font style=&quot;font-size: 36px;&quot;&gt;-&lt;/font&gt;" style="rounded=0;whiteSpace=wrap;html=1;" parent="1" vertex="1">
                    <mxGeometry x="100" y="400" width="120" height="60" as="geometry"/>
                </mxCell>
                <mxCell id="DfEszqJMXf5OwfAuTa_I-65" value="&lt;font style=&quot;font-size: 36px;&quot;&gt;-&lt;/font&gt;" style="rounded=0;whiteSpace=wrap;html=1;" parent="1" vertex="1">
                    <mxGeometry x="100" y="460" width="120" height="60" as="geometry"/>
                </mxCell>
                <mxCell id="DfEszqJMXf5OwfAuTa_I-66" value="&lt;font style=&quot;font-size: 36px;&quot;&gt;-&lt;/font&gt;" style="rounded=0;whiteSpace=wrap;html=1;" parent="1" vertex="1">
                    <mxGeometry x="220" y="400" width="120" height="60" as="geometry"/>
                </mxCell>
                <mxCell id="DfEszqJMXf5OwfAuTa_I-67" value="&lt;font style=&quot;font-size: 36px;&quot;&gt;-&lt;/font&gt;" style="rounded=0;whiteSpace=wrap;html=1;" parent="1" vertex="1">
                    <mxGeometry x="220" y="460" width="120" height="60" as="geometry"/>
                </mxCell>
                <mxCell id="DfEszqJMXf5OwfAuTa_I-68" value="&lt;font style=&quot;font-size: 36px;&quot;&gt;-&lt;/font&gt;" style="rounded=0;whiteSpace=wrap;html=1;" parent="1" vertex="1">
                    <mxGeometry x="340" y="460" width="120" height="60" as="geometry"/>
                </mxCell>
                <mxCell id="DfEszqJMXf5OwfAuTa_I-69" value="&lt;font style=&quot;font-size: 36px;&quot;&gt;-&lt;/font&gt;" style="rounded=0;whiteSpace=wrap;html=1;" parent="1" vertex="1">
                    <mxGeometry x="340" y="520" width="120" height="60" as="geometry"/>
                </mxCell>
                <mxCell id="DfEszqJMXf5OwfAuTa_I-70" value="&lt;font style=&quot;font-size: 36px;&quot;&gt;-&lt;/font&gt;" style="rounded=0;whiteSpace=wrap;html=1;" parent="1" vertex="1">
                    <mxGeometry x="100" y="520" width="120" height="60" as="geometry"/>
                </mxCell>
                <mxCell id="DfEszqJMXf5OwfAuTa_I-71" value="&lt;font style=&quot;font-size: 36px;&quot;&gt;-&lt;/font&gt;" style="rounded=0;whiteSpace=wrap;html=1;" parent="1" vertex="1">
                    <mxGeometry x="220" y="520" width="120" height="60" as="geometry"/>
                </mxCell>
                <mxCell id="DfEszqJMXf5OwfAuTa_I-72" value="&lt;font style=&quot;font-size: 36px;&quot;&gt;-&lt;/font&gt;" style="rounded=0;whiteSpace=wrap;html=1;" parent="1" vertex="1">
                    <mxGeometry x="460" y="520" width="120" height="60" as="geometry"/>
                </mxCell>
                <mxCell id="DfEszqJMXf5OwfAuTa_I-73" value="&lt;span style=&quot;font-size: 36px;&quot;&gt;CC7&lt;/span&gt;" style="rounded=0;whiteSpace=wrap;html=1;" parent="1" vertex="1">
                    <mxGeometry x="820" y="160" width="120" height="60" as="geometry"/>
                </mxCell>
                <mxCell id="DfEszqJMXf5OwfAuTa_I-74" value="&lt;span style=&quot;font-size: 36px;&quot;&gt;CC8&lt;/span&gt;" style="rounded=0;whiteSpace=wrap;html=1;" parent="1" vertex="1">
                    <mxGeometry x="940" y="160" width="120" height="60" as="geometry"/>
                </mxCell>
                <mxCell id="DfEszqJMXf5OwfAuTa_I-75" value="&lt;span style=&quot;font-size: 36px;&quot;&gt;CC9&lt;br&gt;&lt;/span&gt;" style="rounded=0;whiteSpace=wrap;html=1;" parent="1" vertex="1">
                    <mxGeometry x="1060" y="160" width="120" height="60" as="geometry"/>
                </mxCell>
                <mxCell id="DfEszqJMXf5OwfAuTa_I-76" value="&lt;span style=&quot;font-size: 36px;&quot;&gt;CC10&lt;/span&gt;" style="rounded=0;whiteSpace=wrap;html=1;" parent="1" vertex="1">
                    <mxGeometry x="1180" y="160" width="120" height="60" as="geometry"/>
                </mxCell>
                <mxCell id="DfEszqJMXf5OwfAuTa_I-77" value="&lt;span style=&quot;font-size: 36px;&quot;&gt;CC11&lt;/span&gt;" style="rounded=0;whiteSpace=wrap;html=1;" parent="1" vertex="1">
                    <mxGeometry x="1300" y="160" width="120" height="60" as="geometry"/>
                </mxCell>
                <mxCell id="DfEszqJMXf5OwfAuTa_I-78" value="&lt;span style=&quot;font-size: 36px;&quot;&gt;CC12&lt;/span&gt;" style="rounded=0;whiteSpace=wrap;html=1;" parent="1" vertex="1">
                    <mxGeometry x="1420" y="160" width="120" height="60" as="geometry"/>
                </mxCell>
                <mxCell id="DfEszqJMXf5OwfAuTa_I-79" value="&lt;font style=&quot;font-size: 36px;&quot;&gt;CC6&lt;/font&gt;" style="rounded=0;whiteSpace=wrap;html=1;" parent="1" vertex="1">
                    <mxGeometry x="700" y="160" width="120" height="60" as="geometry"/>
                </mxCell>
                <mxCell id="DfEszqJMXf5OwfAuTa_I-80" value="&lt;font style=&quot;font-size: 36px;&quot;&gt;CC1&lt;/font&gt;" style="rounded=0;whiteSpace=wrap;html=1;" parent="1" vertex="1">
                    <mxGeometry x="100" y="160" width="120" height="60" as="geometry"/>
                </mxCell>
                <mxCell id="DfEszqJMXf5OwfAuTa_I-81" value="&lt;font style=&quot;font-size: 36px;&quot;&gt;CC2&lt;/font&gt;" style="rounded=0;whiteSpace=wrap;html=1;" parent="1" vertex="1">
                    <mxGeometry x="220" y="160" width="120" height="60" as="geometry"/>
                </mxCell>
                <mxCell id="DfEszqJMXf5OwfAuTa_I-82" value="&lt;font style=&quot;font-size: 36px;&quot;&gt;CC4&lt;/font&gt;" style="rounded=0;whiteSpace=wrap;html=1;" parent="1" vertex="1">
                    <mxGeometry x="460" y="160" width="120" height="60" as="geometry"/>
                </mxCell>
                <mxCell id="DfEszqJMXf5OwfAuTa_I-83" value="&lt;font style=&quot;font-size: 36px;&quot;&gt;CC3&lt;/font&gt;" style="rounded=0;whiteSpace=wrap;html=1;" parent="1" vertex="1">
                    <mxGeometry x="340" y="160" width="120" height="60" as="geometry"/>
                </mxCell>
                <mxCell id="DfEszqJMXf5OwfAuTa_I-84" value="&lt;font style=&quot;font-size: 36px;&quot;&gt;CC5&lt;/font&gt;" style="rounded=0;whiteSpace=wrap;html=1;" parent="1" vertex="1">
                    <mxGeometry x="580" y="160" width="120" height="60" as="geometry"/>
                </mxCell>
                <mxCell id="DfEszqJMXf5OwfAuTa_I-85" value="LW R1, 0(R2)&amp;nbsp;" style="rounded=0;whiteSpace=wrap;html=1;" parent="1" vertex="1">
                    <mxGeometry x="-20" y="220" width="120" height="60" as="geometry"/>
                </mxCell>
                <mxCell id="DfEszqJMXf5OwfAuTa_I-86" value="ADD R1, R1, R2" style="rounded=0;whiteSpace=wrap;html=1;" parent="1" vertex="1">
                    <mxGeometry x="-20" y="280" width="120" height="60" as="geometry"/>
                </mxCell>
                <mxCell id="DfEszqJMXf5OwfAuTa_I-87" value="SUB R3, R3, R2&amp;nbsp;" style="rounded=0;whiteSpace=wrap;html=1;" parent="1" vertex="1">
                    <mxGeometry x="-20" y="340" width="120" height="60" as="geometry"/>
                </mxCell>
                <mxCell id="DfEszqJMXf5OwfAuTa_I-88" value="ADD R2, R1, R2" style="rounded=0;whiteSpace=wrap;html=1;" parent="1" vertex="1">
                    <mxGeometry x="-20" y="400" width="120" height="60" as="geometry"/>
                </mxCell>
                <mxCell id="DfEszqJMXf5OwfAuTa_I-89" value="ADD R1, R1, R2" style="rounded=0;whiteSpace=wrap;html=1;" parent="1" vertex="1">
                    <mxGeometry x="-20" y="460" width="120" height="60" as="geometry"/>
                </mxCell>
                <mxCell id="DfEszqJMXf5OwfAuTa_I-90" value="ADD R3, R1, R2" style="rounded=0;whiteSpace=wrap;html=1;" parent="1" vertex="1">
                    <mxGeometry x="-20" y="520" width="120" height="60" as="geometry"/>
                </mxCell>
                <mxCell id="DfEszqJMXf5OwfAuTa_I-91" value="&lt;font size=&quot;3&quot;&gt;INSTRUCTION&lt;/font&gt;" style="rounded=0;whiteSpace=wrap;html=1;" parent="1" vertex="1">
                    <mxGeometry x="-20" y="160" width="120" height="60" as="geometry"/>
                </mxCell>
                <mxCell id="DfEszqJMXf5OwfAuTa_I-96" value="" style="rounded=0;whiteSpace=wrap;html=1;" parent="1" vertex="1">
                    <mxGeometry x="1540" y="220" width="120" height="60" as="geometry"/>
                </mxCell>
                <mxCell id="DfEszqJMXf5OwfAuTa_I-97" value="" style="rounded=0;whiteSpace=wrap;html=1;" parent="1" vertex="1">
                    <mxGeometry x="1540" y="280" width="120" height="60" as="geometry"/>
                </mxCell>
                <mxCell id="DfEszqJMXf5OwfAuTa_I-98" value="" style="rounded=0;whiteSpace=wrap;html=1;" parent="1" vertex="1">
                    <mxGeometry x="1540" y="340" width="120" height="60" as="geometry"/>
                </mxCell>
                <mxCell id="DfEszqJMXf5OwfAuTa_I-99" value="" style="rounded=0;whiteSpace=wrap;html=1;" parent="1" vertex="1">
                    <mxGeometry x="1540" y="400" width="120" height="60" as="geometry"/>
                </mxCell>
                <mxCell id="DfEszqJMXf5OwfAuTa_I-100" value="&lt;span style=&quot;font-size: 36px;&quot;&gt;MEM&lt;/span&gt;" style="rounded=0;whiteSpace=wrap;html=1;" parent="1" vertex="1">
                    <mxGeometry x="1540" y="460" width="120" height="60" as="geometry"/>
                </mxCell>
                <mxCell id="DfEszqJMXf5OwfAuTa_I-101" value="&lt;span style=&quot;font-size: 36px;&quot;&gt;STALL&lt;/span&gt;" style="rounded=0;whiteSpace=wrap;html=1;" parent="1" vertex="1">
                    <mxGeometry x="1540" y="520" width="120" height="60" as="geometry"/>
                </mxCell>
                <mxCell id="DfEszqJMXf5OwfAuTa_I-102" value="&lt;span style=&quot;font-size: 36px;&quot;&gt;CC12&lt;/span&gt;" style="rounded=0;whiteSpace=wrap;html=1;" parent="1" vertex="1">
                    <mxGeometry x="1540" y="160" width="120" height="60" as="geometry"/>
                </mxCell>
                <mxCell id="DfEszqJMXf5OwfAuTa_I-103" value="" style="rounded=0;whiteSpace=wrap;html=1;" parent="1" vertex="1">
                    <mxGeometry x="1660" y="220" width="120" height="60" as="geometry"/>
                </mxCell>
                <mxCell id="DfEszqJMXf5OwfAuTa_I-104" value="" style="rounded=0;whiteSpace=wrap;html=1;" parent="1" vertex="1">
                    <mxGeometry x="1660" y="280" width="120" height="60" as="geometry"/>
                </mxCell>
                <mxCell id="DfEszqJMXf5OwfAuTa_I-105" value="" style="rounded=0;whiteSpace=wrap;html=1;" parent="1" vertex="1">
                    <mxGeometry x="1660" y="340" width="120" height="60" as="geometry"/>
                </mxCell>
                <mxCell id="DfEszqJMXf5OwfAuTa_I-106" value="" style="rounded=0;whiteSpace=wrap;html=1;" parent="1" vertex="1">
                    <mxGeometry x="1660" y="400" width="120" height="60" as="geometry"/>
                </mxCell>
                <mxCell id="DfEszqJMXf5OwfAuTa_I-107" value="&lt;span style=&quot;font-size: 36px;&quot;&gt;WB&lt;/span&gt;" style="rounded=0;whiteSpace=wrap;html=1;" parent="1" vertex="1">
                    <mxGeometry x="1660" y="460" width="120" height="60" as="geometry"/>
                </mxCell>
                <mxCell id="DfEszqJMXf5OwfAuTa_I-108" value="&lt;span style=&quot;font-size: 36px;&quot;&gt;STALL&lt;/span&gt;" style="rounded=0;whiteSpace=wrap;html=1;" parent="1" vertex="1">
                    <mxGeometry x="1660" y="520" width="120" height="60" as="geometry"/>
                </mxCell>
                <mxCell id="DfEszqJMXf5OwfAuTa_I-109" value="&lt;span style=&quot;font-size: 36px;&quot;&gt;CC12&lt;/span&gt;" style="rounded=0;whiteSpace=wrap;html=1;" parent="1" vertex="1">
                    <mxGeometry x="1660" y="160" width="120" height="60" as="geometry"/>
                </mxCell>
                <mxCell id="DfEszqJMXf5OwfAuTa_I-110" value="" style="rounded=0;whiteSpace=wrap;html=1;" parent="1" vertex="1">
                    <mxGeometry x="1780" y="220" width="120" height="60" as="geometry"/>
                </mxCell>
                <mxCell id="DfEszqJMXf5OwfAuTa_I-111" value="" style="rounded=0;whiteSpace=wrap;html=1;" parent="1" vertex="1">
                    <mxGeometry x="1780" y="280" width="120" height="60" as="geometry"/>
                </mxCell>
                <mxCell id="DfEszqJMXf5OwfAuTa_I-112" value="" style="rounded=0;whiteSpace=wrap;html=1;" parent="1" vertex="1">
                    <mxGeometry x="1780" y="340" width="120" height="60" as="geometry"/>
                </mxCell>
                <mxCell id="DfEszqJMXf5OwfAuTa_I-113" value="" style="rounded=0;whiteSpace=wrap;html=1;" parent="1" vertex="1">
                    <mxGeometry x="1780" y="400" width="120" height="60" as="geometry"/>
                </mxCell>
                <mxCell id="DfEszqJMXf5OwfAuTa_I-114" value="" style="rounded=0;whiteSpace=wrap;html=1;" parent="1" vertex="1">
                    <mxGeometry x="1780" y="460" width="120" height="60" as="geometry"/>
                </mxCell>
                <mxCell id="DfEszqJMXf5OwfAuTa_I-115" value="&lt;span style=&quot;font-size: 36px;&quot;&gt;EX&lt;/span&gt;" style="rounded=0;whiteSpace=wrap;html=1;" parent="1" vertex="1">
                    <mxGeometry x="1780" y="520" width="120" height="60" as="geometry"/>
                </mxCell>
                <mxCell id="DfEszqJMXf5OwfAuTa_I-116" value="&lt;span style=&quot;font-size: 36px;&quot;&gt;CC13&lt;/span&gt;" style="rounded=0;whiteSpace=wrap;html=1;" parent="1" vertex="1">
                    <mxGeometry x="1780" y="160" width="120" height="60" as="geometry"/>
                </mxCell>
                <mxCell id="DfEszqJMXf5OwfAuTa_I-117" value="" style="rounded=0;whiteSpace=wrap;html=1;" parent="1" vertex="1">
                    <mxGeometry x="1900" y="220" width="120" height="60" as="geometry"/>
                </mxCell>
                <mxCell id="DfEszqJMXf5OwfAuTa_I-118" value="" style="rounded=0;whiteSpace=wrap;html=1;" parent="1" vertex="1">
                    <mxGeometry x="1900" y="280" width="120" height="60" as="geometry"/>
                </mxCell>
                <mxCell id="DfEszqJMXf5OwfAuTa_I-119" value="" style="rounded=0;whiteSpace=wrap;html=1;" parent="1" vertex="1">
                    <mxGeometry x="1900" y="340" width="120" height="60" as="geometry"/>
                </mxCell>
                <mxCell id="DfEszqJMXf5OwfAuTa_I-120" value="" style="rounded=0;whiteSpace=wrap;html=1;" parent="1" vertex="1">
                    <mxGeometry x="1900" y="400" width="120" height="60" as="geometry"/>
                </mxCell>
                <mxCell id="DfEszqJMXf5OwfAuTa_I-121" value="" style="rounded=0;whiteSpace=wrap;html=1;" parent="1" vertex="1">
                    <mxGeometry x="1900" y="460" width="120" height="60" as="geometry"/>
                </mxCell>
                <mxCell id="DfEszqJMXf5OwfAuTa_I-122" value="&lt;span style=&quot;font-size: 36px;&quot;&gt;MEM&lt;/span&gt;" style="rounded=0;whiteSpace=wrap;html=1;" parent="1" vertex="1">
                    <mxGeometry x="1900" y="520" width="120" height="60" as="geometry"/>
                </mxCell>
                <mxCell id="DfEszqJMXf5OwfAuTa_I-123" value="&lt;span style=&quot;font-size: 36px;&quot;&gt;CC14&lt;/span&gt;" style="rounded=0;whiteSpace=wrap;html=1;" parent="1" vertex="1">
                    <mxGeometry x="1900" y="160" width="120" height="60" as="geometry"/>
                </mxCell>
                <mxCell id="DfEszqJMXf5OwfAuTa_I-124" value="" style="rounded=0;whiteSpace=wrap;html=1;" parent="1" vertex="1">
                    <mxGeometry x="2020" y="220" width="120" height="60" as="geometry"/>
                </mxCell>
                <mxCell id="DfEszqJMXf5OwfAuTa_I-125" value="" style="rounded=0;whiteSpace=wrap;html=1;" parent="1" vertex="1">
                    <mxGeometry x="2020" y="280" width="120" height="60" as="geometry"/>
                </mxCell>
                <mxCell id="DfEszqJMXf5OwfAuTa_I-126" value="" style="rounded=0;whiteSpace=wrap;html=1;" parent="1" vertex="1">
                    <mxGeometry x="2020" y="340" width="120" height="60" as="geometry"/>
                </mxCell>
                <mxCell id="DfEszqJMXf5OwfAuTa_I-127" value="" style="rounded=0;whiteSpace=wrap;html=1;" parent="1" vertex="1">
                    <mxGeometry x="2020" y="400" width="120" height="60" as="geometry"/>
                </mxCell>
                <mxCell id="DfEszqJMXf5OwfAuTa_I-128" value="" style="rounded=0;whiteSpace=wrap;html=1;" parent="1" vertex="1">
                    <mxGeometry x="2020" y="460" width="120" height="60" as="geometry"/>
                </mxCell>
                <mxCell id="DfEszqJMXf5OwfAuTa_I-129" value="&lt;span style=&quot;font-size: 36px;&quot;&gt;WB&lt;/span&gt;" style="rounded=0;whiteSpace=wrap;html=1;" parent="1" vertex="1">
                    <mxGeometry x="2020" y="520" width="120" height="60" as="geometry"/>
                </mxCell>
                <mxCell id="DfEszqJMXf5OwfAuTa_I-130" value="&lt;span style=&quot;font-size: 36px;&quot;&gt;CC15&lt;/span&gt;" style="rounded=0;whiteSpace=wrap;html=1;" parent="1" vertex="1">
                    <mxGeometry x="2020" y="160" width="120" height="60" as="geometry"/>
                </mxCell>
            </root>
        </mxGraphModel>
    </diagram>
</mxfile>